<mxfile host="app.diagrams.net" modified="2024-07-25T12:30:08.640Z" agent="Mozilla/5.0 (Windows NT 10.0; Win64; x64) AppleWebKit/537.36 (KHTML, like Gecko) Chrome/127.0.0.0 Safari/537.36" etag="cjr0mqIzFscrNZnwpbQ5" version="24.7.2" type="device">
  <diagram name="Page-1" id="-lJSmdrii-jbLpQghmZH">
    <mxGraphModel dx="1036" dy="595" grid="1" gridSize="10" guides="1" tooltips="1" connect="1" arrows="1" fold="1" page="1" pageScale="1" pageWidth="850" pageHeight="1100" math="0" shadow="0">
      <root>
        <mxCell id="0" />
        <mxCell id="1" parent="0" />
        <mxCell id="LXsdI-iRceLIJ1sz6DLp-29" style="rounded=0;orthogonalLoop=1;jettySize=auto;html=1;exitX=1;exitY=0.3333333333333333;exitDx=0;exitDy=0;exitPerimeter=0;entryX=0;entryY=0.5;entryDx=0;entryDy=0;" parent="1" source="LXsdI-iRceLIJ1sz6DLp-1" target="LXsdI-iRceLIJ1sz6DLp-18" edge="1">
          <mxGeometry relative="1" as="geometry" />
        </mxCell>
        <mxCell id="LXsdI-iRceLIJ1sz6DLp-30" style="rounded=0;orthogonalLoop=1;jettySize=auto;html=1;exitX=1;exitY=0.3333333333333333;exitDx=0;exitDy=0;exitPerimeter=0;entryX=0;entryY=0.5;entryDx=0;entryDy=0;" parent="1" source="LXsdI-iRceLIJ1sz6DLp-1" target="LXsdI-iRceLIJ1sz6DLp-17" edge="1">
          <mxGeometry relative="1" as="geometry" />
        </mxCell>
        <mxCell id="LXsdI-iRceLIJ1sz6DLp-31" style="rounded=0;orthogonalLoop=1;jettySize=auto;html=1;exitX=1;exitY=0.3333333333333333;exitDx=0;exitDy=0;exitPerimeter=0;entryX=0;entryY=0.5;entryDx=0;entryDy=0;" parent="1" source="LXsdI-iRceLIJ1sz6DLp-1" target="LXsdI-iRceLIJ1sz6DLp-19" edge="1">
          <mxGeometry relative="1" as="geometry" />
        </mxCell>
        <mxCell id="LXsdI-iRceLIJ1sz6DLp-32" style="rounded=0;orthogonalLoop=1;jettySize=auto;html=1;exitX=1;exitY=0.3333333333333333;exitDx=0;exitDy=0;exitPerimeter=0;entryX=0;entryY=0.5;entryDx=0;entryDy=0;" parent="1" source="LXsdI-iRceLIJ1sz6DLp-1" target="LXsdI-iRceLIJ1sz6DLp-13" edge="1">
          <mxGeometry relative="1" as="geometry" />
        </mxCell>
        <mxCell id="LXsdI-iRceLIJ1sz6DLp-33" style="rounded=0;orthogonalLoop=1;jettySize=auto;html=1;exitX=1;exitY=0.3333333333333333;exitDx=0;exitDy=0;exitPerimeter=0;entryX=0;entryY=0.5;entryDx=0;entryDy=0;" parent="1" source="LXsdI-iRceLIJ1sz6DLp-1" target="LXsdI-iRceLIJ1sz6DLp-16" edge="1">
          <mxGeometry relative="1" as="geometry" />
        </mxCell>
        <mxCell id="LXsdI-iRceLIJ1sz6DLp-1" value="Actor" style="shape=umlActor;verticalLabelPosition=bottom;verticalAlign=top;html=1;outlineConnect=0;" parent="1" vertex="1">
          <mxGeometry x="80" y="200" width="40" height="80" as="geometry" />
        </mxCell>
        <mxCell id="LXsdI-iRceLIJ1sz6DLp-3" value="" style="whiteSpace=wrap;html=1;aspect=fixed;" parent="1" vertex="1">
          <mxGeometry x="200" y="80" width="280" height="280" as="geometry" />
        </mxCell>
        <mxCell id="LXsdI-iRceLIJ1sz6DLp-35" style="rounded=0;orthogonalLoop=1;jettySize=auto;html=1;exitX=0;exitY=0.3333333333333333;exitDx=0;exitDy=0;exitPerimeter=0;entryX=1;entryY=0.5;entryDx=0;entryDy=0;" parent="1" source="LXsdI-iRceLIJ1sz6DLp-4" target="LXsdI-iRceLIJ1sz6DLp-9" edge="1">
          <mxGeometry relative="1" as="geometry" />
        </mxCell>
        <mxCell id="LXsdI-iRceLIJ1sz6DLp-36" style="rounded=0;orthogonalLoop=1;jettySize=auto;html=1;exitX=0;exitY=0.3333333333333333;exitDx=0;exitDy=0;exitPerimeter=0;entryX=1;entryY=0.5;entryDx=0;entryDy=0;" parent="1" source="LXsdI-iRceLIJ1sz6DLp-4" target="LXsdI-iRceLIJ1sz6DLp-10" edge="1">
          <mxGeometry relative="1" as="geometry" />
        </mxCell>
        <mxCell id="LXsdI-iRceLIJ1sz6DLp-37" style="rounded=0;orthogonalLoop=1;jettySize=auto;html=1;exitX=0;exitY=0.3333333333333333;exitDx=0;exitDy=0;exitPerimeter=0;entryX=1;entryY=0.5;entryDx=0;entryDy=0;" parent="1" source="LXsdI-iRceLIJ1sz6DLp-4" target="LXsdI-iRceLIJ1sz6DLp-11" edge="1">
          <mxGeometry relative="1" as="geometry" />
        </mxCell>
        <mxCell id="LXsdI-iRceLIJ1sz6DLp-38" style="rounded=0;orthogonalLoop=1;jettySize=auto;html=1;exitX=0;exitY=0.3333333333333333;exitDx=0;exitDy=0;exitPerimeter=0;entryX=1;entryY=0.5;entryDx=0;entryDy=0;" parent="1" source="LXsdI-iRceLIJ1sz6DLp-4" target="LXsdI-iRceLIJ1sz6DLp-12" edge="1">
          <mxGeometry relative="1" as="geometry" />
        </mxCell>
        <mxCell id="LXsdI-iRceLIJ1sz6DLp-4" value="Khách Hàng" style="shape=umlActor;verticalLabelPosition=bottom;verticalAlign=top;html=1;outlineConnect=0;" parent="1" vertex="1">
          <mxGeometry x="560" y="200" width="40" height="80" as="geometry" />
        </mxCell>
        <mxCell id="LXsdI-iRceLIJ1sz6DLp-6" value="" style="ellipse;whiteSpace=wrap;html=1;" parent="1" vertex="1">
          <mxGeometry x="200" y="80" width="80" height="50" as="geometry" />
        </mxCell>
        <mxCell id="LXsdI-iRceLIJ1sz6DLp-8" value="" style="ellipse;whiteSpace=wrap;html=1;" parent="1" vertex="1">
          <mxGeometry x="400" y="80" width="80" height="50" as="geometry" />
        </mxCell>
        <mxCell id="LXsdI-iRceLIJ1sz6DLp-9" value="" style="ellipse;whiteSpace=wrap;html=1;" parent="1" vertex="1">
          <mxGeometry x="400" y="140" width="80" height="50" as="geometry" />
        </mxCell>
        <mxCell id="LXsdI-iRceLIJ1sz6DLp-10" value="" style="ellipse;whiteSpace=wrap;html=1;" parent="1" vertex="1">
          <mxGeometry x="400" y="200" width="80" height="50" as="geometry" />
        </mxCell>
        <mxCell id="LXsdI-iRceLIJ1sz6DLp-11" value="" style="ellipse;whiteSpace=wrap;html=1;" parent="1" vertex="1">
          <mxGeometry x="400" y="260" width="80" height="50" as="geometry" />
        </mxCell>
        <mxCell id="LXsdI-iRceLIJ1sz6DLp-12" value="" style="ellipse;whiteSpace=wrap;html=1;" parent="1" vertex="1">
          <mxGeometry x="400" y="310" width="80" height="50" as="geometry" />
        </mxCell>
        <mxCell id="LXsdI-iRceLIJ1sz6DLp-13" value="" style="ellipse;whiteSpace=wrap;html=1;" parent="1" vertex="1">
          <mxGeometry x="200" y="260" width="80" height="50" as="geometry" />
        </mxCell>
        <mxCell id="LXsdI-iRceLIJ1sz6DLp-14" value="" style="ellipse;whiteSpace=wrap;html=1;" parent="1" vertex="1">
          <mxGeometry x="200" y="200" width="80" height="50" as="geometry" />
        </mxCell>
        <mxCell id="LXsdI-iRceLIJ1sz6DLp-15" value="" style="ellipse;whiteSpace=wrap;html=1;" parent="1" vertex="1">
          <mxGeometry x="200" y="140" width="80" height="50" as="geometry" />
        </mxCell>
        <mxCell id="LXsdI-iRceLIJ1sz6DLp-16" value="" style="ellipse;whiteSpace=wrap;html=1;" parent="1" vertex="1">
          <mxGeometry x="200" y="310" width="80" height="50" as="geometry" />
        </mxCell>
        <mxCell id="LXsdI-iRceLIJ1sz6DLp-17" value="Tìm hàng theo tện" style="text;html=1;align=center;verticalAlign=middle;whiteSpace=wrap;rounded=0;" parent="1" vertex="1">
          <mxGeometry x="210" y="150" width="60" height="30" as="geometry" />
        </mxCell>
        <mxCell id="LXsdI-iRceLIJ1sz6DLp-18" value="Tìm hàng theo loại" style="text;html=1;align=center;verticalAlign=middle;whiteSpace=wrap;rounded=0;" parent="1" vertex="1">
          <mxGeometry x="210" y="90" width="60" height="30" as="geometry" />
        </mxCell>
        <mxCell id="LXsdI-iRceLIJ1sz6DLp-19" value="Xem thông tin chi tiết" style="text;html=1;align=center;verticalAlign=middle;whiteSpace=wrap;rounded=0;" parent="1" vertex="1">
          <mxGeometry x="210" y="210" width="60" height="30" as="geometry" />
        </mxCell>
        <mxCell id="LXsdI-iRceLIJ1sz6DLp-20" value="Bình luận" style="text;html=1;align=center;verticalAlign=middle;whiteSpace=wrap;rounded=0;" parent="1" vertex="1">
          <mxGeometry x="210" y="270" width="60" height="30" as="geometry" />
        </mxCell>
        <mxCell id="LXsdI-iRceLIJ1sz6DLp-21" value="Quản lý tài khoản" style="text;html=1;align=center;verticalAlign=middle;whiteSpace=wrap;rounded=0;" parent="1" vertex="1">
          <mxGeometry x="210" y="320" width="60" height="30" as="geometry" />
        </mxCell>
        <mxCell id="LXsdI-iRceLIJ1sz6DLp-22" value="Quản lý loại&amp;nbsp;" style="text;html=1;align=center;verticalAlign=middle;whiteSpace=wrap;rounded=0;" parent="1" vertex="1">
          <mxGeometry x="410" y="90" width="60" height="30" as="geometry" />
        </mxCell>
        <mxCell id="LXsdI-iRceLIJ1sz6DLp-23" value="Quản lý hàng" style="text;html=1;align=center;verticalAlign=middle;whiteSpace=wrap;rounded=0;" parent="1" vertex="1">
          <mxGeometry x="410" y="150" width="60" height="30" as="geometry" />
        </mxCell>
        <mxCell id="LXsdI-iRceLIJ1sz6DLp-24" value="Quản lý bình luận" style="text;html=1;align=center;verticalAlign=middle;whiteSpace=wrap;rounded=0;" parent="1" vertex="1">
          <mxGeometry x="410" y="210" width="60" height="30" as="geometry" />
        </mxCell>
        <mxCell id="LXsdI-iRceLIJ1sz6DLp-25" value="Quản lý khách&amp;nbsp;" style="text;html=1;align=center;verticalAlign=middle;whiteSpace=wrap;rounded=0;" parent="1" vertex="1">
          <mxGeometry x="410" y="270" width="60" height="30" as="geometry" />
        </mxCell>
        <mxCell id="LXsdI-iRceLIJ1sz6DLp-27" value="QL Bình luận, thống kê" style="text;html=1;align=center;verticalAlign=middle;whiteSpace=wrap;rounded=0;" parent="1" vertex="1">
          <mxGeometry x="410" y="320" width="60" height="30" as="geometry" />
        </mxCell>
        <mxCell id="LXsdI-iRceLIJ1sz6DLp-34" style="rounded=0;orthogonalLoop=1;jettySize=auto;html=1;exitX=0;exitY=0.3333333333333333;exitDx=0;exitDy=0;exitPerimeter=0;entryX=0.999;entryY=0.094;entryDx=0;entryDy=0;entryPerimeter=0;" parent="1" source="LXsdI-iRceLIJ1sz6DLp-4" target="LXsdI-iRceLIJ1sz6DLp-3" edge="1">
          <mxGeometry relative="1" as="geometry" />
        </mxCell>
      </root>
    </mxGraphModel>
  </diagram>
</mxfile>
